<svg xmlns="http://www.w3.org/2000/svg" xmlns:xlink="http://www.w3.org/1999/xlink" viewBox="0 0 501 369"><defs><style>.a{isolation:isolate;}.b{fill:url(#a);}.c{fill:url(#b);}.d{opacity:0.7;mix-blend-mode:overlay;}.aa,.ab,.ac,.e,.f,.g,.h,.i,.j,.k,.l,.m,.n,.o,.p,.q,.r,.s,.t,.u,.v,.w,.x,.y,.z{fill:none;stroke:#fff;}.aa,.ab,.ac,.e,.f,.g,.i,.j,.k,.l,.m,.n,.o,.p,.q,.r,.s,.t,.u,.v,.w,.x,.y,.z{stroke-miterlimit:10;}.e{stroke-width:0.65px;}.f{stroke-width:0.64px;}.g{stroke-width:0.63px;}.h{stroke-miterlimit:10;stroke-width:0.61px;}.i{stroke-width:0.6px;}.j{stroke-width:0.59px;}.k{stroke-width:0.57px;}.l{stroke-width:0.56px;}.m{stroke-width:0.54px;}.n{stroke-width:0.53px;}.o{stroke-width:0.52px;}.p{stroke-width:0.5px;}.q{stroke-width:0.49px;}.r{stroke-width:0.48px;}.s{stroke-width:0.46px;}.t{stroke-width:0.45px;}.u{stroke-width:0.44px;}.v{stroke-width:0.42px;}.w{stroke-width:0.41px;}.x{stroke-width:0.39px;}.y{stroke-width:0.38px;}.z{stroke-width:0.37px;}.aa{stroke-width:0.35px;}.ab{stroke-width:0.34px;}.ac{stroke-width:0.33px;}</style><linearGradient id="a" x1="246.96" y1="283.72" x2="248.98" y2="394.69" gradientUnits="userSpaceOnUse"><stop offset="0" stop-color="#a07fb5" stop-opacity="0.2"/><stop offset="0.33" stop-color="#a07fb5" stop-opacity="0.7"/><stop offset="1" stop-color="#a07fb5"/></linearGradient><linearGradient id="b" x1="322.51" y1="305.45" x2="413.66" y2="451.88" xlink:href="#a"/></defs><g class="a"><path class="b" d="M480.1,246.44a75.71,75.71,0,0,0,16.94,11V368.5H246.75v.5H-2V202.65c.15.3.3.61.44.93,17.9,37.71,24,111,60.85,127.85,43.94,20.08,80.58-40.71,129.85-26.09a69.58,69.58,0,0,1,19.74,9.75c13.31,9.23,26,14.3,37.92,15.83,18,2.31,34.39-3.4,49-15,18.94-15,34.9-39.86,47.49-69.93.16-.4.33-.81.5-1.21,27.9-67.39,84.13-41.27,132.06-1.93,1.27,1,2.52,2.08,3.78,3.14C479.76,246.14,479.92,246.29,480.1,246.44Z"/><path class="c" d="M497,244.52v124H246.75v.35H149.51c0-.12,0-.23,0-.35a79,79,0,0,1,.3-11.19c2.59-26.35,18.66-43.31,39.29-52,17.73-7.45,38.84-8.76,57.66-4.62a87.42,87.42,0,0,1,17.19,5.63,119.14,119.14,0,0,0,31.81,9.58c29.51,4.28,53.18-5.69,68.17-20.95,11.18-11.39,19.86-34.58,36.47-49,13.16-11.43,31.3-17.33,59.61-7.45a114.07,114.07,0,0,0,15.8,4.31A89.57,89.57,0,0,0,497,244.52Z"/><g class="d"><path class="e" d="M-11.37,186.59s133.25-51.75,177.23,53.35,76.13,129.43,235.25,84C481.4,301,542.37,374.66,565,393.57"/><path class="f" d="M564.88,393.7c-23.48-18.43-82.75-87.37-163.13-66.1-156.32,41.37-185.48,15-230.41-86.46s-175.47-47-182.15-48.95"/><path class="g" d="M564.76,393.84c-24.32-18-81.88-82.14-162.37-62.55-153.46,37.35-179.69,8.82-225.58-89S3.12,201.74-10.26,197.79"/><path class="h" d="M564.64,394c-25.16-17.5-81-76.89-161.61-59-150.55,33.41-173.91,2.67-220.75-91.44S10.36,209.31-9.7,203.39"/><path class="i" d="M564.53,394.11c-26-17-80.06-71.61-160.86-55.44-147.6,29.54-168.12-3.48-215.91-93.93S17.6,216.88-9.14,209"/><path class="j" d="M564.41,394.25c-26.86-16.56-79.1-66.32-160.1-51.89C259.72,368.11,242,332.72,193.23,245.94S24.85,224.45-8.58,214.59"/><path class="k" d="M564.29,394.39c-27.7-16.1-78.12-61-159.34-48.34C263.4,368.1,248.4,330.26,198.71,247.14S32.09,232-8,220.19"/><path class="l" d="M564.17,394.52c-28.54-15.62-77.12-55.64-158.58-44.78-138.46,18.44-150.77-21.94-201.41-101.4S39.33,239.6-7.46,225.79"/><path class="m" d="M564.05,394.66c-29.38-15.15-76.09-50.25-157.82-41.24-135.33,14.93-145-28.09-196.57-103.88S46.58,247.17-6.91,231.39"/><path class="n" d="M563.93,394.8c-30.23-14.69-75-44.82-157.06-37.69-132.18,11.5-139.2-34.24-191.74-106.37S53.82,254.74-6.35,237"/><path class="o" d="M563.81,394.93c-31.07-14.21-74-39.34-156.3-34.13C278.51,369,274.1,320.41,220.6,251.94S61.06,262.32-5.79,242.59"/><path class="p" d="M563.69,395.07c-31.91-13.75-72.91-33.82-155.54-30.58-125.8,4.92-127.63-46.55-182.07-111.35S68.31,269.89-5.23,248.19"/><path class="q" d="M563.58,395.21c-32.77-13.28-71.84-28.24-154.79-27C286.21,370,287,315.48,231.55,254.34s-156,23.12-236.22-.55"/><path class="r" d="M563.46,395.34c-33.61-12.81-70.75-22.59-154-23.47C290.07,370.61,293.37,313,237,255.53S82.79,285-4.11,259.39"/><path class="s" d="M563.34,395.48c-34.45-12.34-69.66-16.9-153.27-19.93-116.13-4.2-110.27-65-167.57-118.82S90,292.6-3.56,265"/><path class="t" d="M563.22,395.62c-35.29-11.87-68.57-11.13-152.51-16.38C297.8,372.18,306.22,308.09,248,257.93S97.28,300.18-3,270.59"/><path class="u" d="M563.1,395.75c-36.14-11.4-67.49-5.27-151.76-12.82-109.69-9.82-98.69-77.3-157.89-123.8S104.53,307.75-2.44,276.19"/><path class="v" d="M563,395.89c-37-10.93-66.43.65-151-9.27-106.5-12.5-92.91-83.46-153.06-126.29s-147.15,55-260.8,21.46"/><path class="w" d="M562.86,396c-37.82-10.47-65.39,6.66-150.24-5.72C309.27,375.22,325.5,300.7,264.4,261.53S119,322.89-1.32,287.39"/><path class="x" d="M562.74,396.16c-38.66-10-64.39,12.77-149.48-2.16C313,376.4,331.92,298.24,269.87,262.73S126.26,330.47-.76,293"/><path class="y" d="M562.63,396.3c-39.52-9.52-63.43,19-148.73,1.39-97.16-20-75.55-101.92-138.55-133.76S133.5,338-.21,298.59"/><path class="z" d="M562.51,396.44c-40.36-9.06-62.52,25.26-148,4.93C320.4,379,344.77,293.31,280.82,265.13S140.74,345.61.35,304.19"/><path class="aa" d="M562.39,396.57c-41.2-8.58-61.66,31.66-147.21,8.49C324,380.37,351.2,290.85,286.3,266.33S148,353.18.91,309.79"/><path class="ab" d="M562.27,396.71c-42-8.12-60.88,38.15-146.45,12-88.31-26.94-58.2-120.37-124-141.22S155.23,360.76,1.47,315.39"/><path class="ac" d="M562.15,396.85c-42.89-7.65-60.17,44.74-145.69,15.59S364.05,285.92,297.24,268.73,162.47,368.33,2,321"/></g></g></svg>